Coordinates
version=1
nRows=42
nColumns=38
inDegrees=no

Units are S.I. units (second, meters, Newtons, ...)
If the header above contains a line with 'inDegrees', this indicates whether rotational values are in degrees (yes) or radians (no).

endheader
time	pelvis_tilt	pelvis_list	pelvis_rotation	pelvis_tx	pelvis_ty	pelvis_tz	hip_flexion_r	hip_adduction_r	hip_rotation_r	knee_angle_r	ankle_angle_r	subtalar_angle_r	mtp_angle_r	hip_flexion_l	hip_adduction_l	hip_rotation_l	knee_angle_l	ankle_angle_l	subtalar_angle_l	mtp_angle_l	lumbar_extension	lumbar_bending	lumbar_rotation	arm_flex_r	arm_add_r	arm_rot_r	elbow_flex_r	pro_sup_r	wrist_flex_r	wrist_dev_r	arm_flex_l	arm_add_l	arm_rot_l	elbow_flex_l	pro_sup_l	wrist_flex_l	wrist_dev_l
5	1.15488	1.39836	0.415335	0.79776	1.2871	0.966922	0.087783	0.180972	-0.118275	0.33058	0.192578	0	0	0.417451	-0.221812	-0.206413	0.2394	0.010151	0	0	-0.072887	0.201586	0.10853	0.211264	-0.240892	0.263397	1.78706	1.5708	0	0	0.375331	-0.364366	0.29917	1.474	1.5708	0	0
5.01	1.14526	1.39435	0.424769	0.796839	1.29237	0.966071	0.0859864	0.182888	-0.117454	0.332396	0.195906	0	0	0.421496	-0.222833	-0.198723	0.213631	0.00343169	0	0	-0.0700046	0.205774	0.108705	0.2136	-0.241477	0.262919	1.78662	1.5708	0	0	0.377535	-0.363771	0.299732	1.47358	1.5708	0	0
5.02	1.13699	1.39019	0.433125	0.795842	1.29769	0.965165	0.0839775	0.184873	-0.116983	0.334139	0.199499	0	0	0.424675	-0.223935	-0.188492	0.187877	-0.00218079	0	0	-0.0670642	0.210117	0.108485	0.215789	-0.242135	0.262475	1.78613	1.5708	0	0	0.379633	-0.363306	0.300355	1.47314	1.5708	0	0
5.03	1.12904	1.38583	0.441339	0.794817	1.30306	0.964188	0.081757	0.18704	-0.116386	0.335355	0.203254	0	0	0.427374	-0.225307	-0.177244	0.162721	-0.00640233	0	0	-0.063832	0.214533	0.107902	0.2178	-0.243143	0.262411	1.7854	1.5708	0	0	0.38158	-0.363016	0.301151	1.47289	1.5708	0	0
5.04	1.06911	1.37664	0.50903	0.793297	1.30693	0.962431	0.0965638	0.187775	-0.122526	0.341727	0.207283	0	0	0.444346	-0.226981	-0.181493	0.130722	-0.0195201	0	0	-0.0496014	0.218442	0.0987957	0.221028	-0.243224	0.261592	1.78361	1.5708	0	0	0.385042	-0.36271	0.301862	1.47246	1.5708	0	0
5.05	1.11014	1.37647	0.459849	0.792619	1.31393	0.961969	0.0791326	0.190808	-0.115064	0.34032	0.212045	0	0	0.431227	-0.228568	-0.151621	0.113359	-0.0130576	0	0	-0.0560433	0.223423	0.106615	0.220973	-0.24531	0.260508	1.78534	1.5708	0	0	0.384451	-0.362075	0.302601	1.47506	1.5708	0	0
5.06	1.10534	1.37256	0.463931	0.791472	1.31945	0.960906	0.0768049	0.192027	-0.114432	0.343303	0.216844	0	0	0.43126	-0.230606	-0.139361	0.0910595	-0.0147258	0	0	-0.0535238	0.227387	0.106217	0.222555	-0.246163	0.258487	1.78621	1.5708	0	0	0.385476	-0.361711	0.303047	1.47759	1.5708	0	0
5.07	1.10056	1.36889	0.46788	0.790194	1.32505	0.959828	0.0748384	0.192503	-0.115249	0.347598	0.222954	0	0	0.429819	-0.232426	-0.124724	0.0685172	-0.0178025	0	0	-0.0537571	0.230326	0.0980098	0.230392	-0.245051	0.264839	1.78481	1.5708	0	0	0.369663	-0.330927	0.106669	1.61623	0.912038	0	0
5.08	1.03816	1.36018	0.53591	0.788652	1.32926	0.957992	0.0918319	0.190936	-0.122048	0.357316	0.229055	0	0	0.445627	-0.233581	-0.121907	0.0429134	-0.0299349	0	0	-0.0355552	0.233313	0.0953451	0.227003	-0.246035	0.256639	1.78546	1.5708	0	0	0.384952	-0.363307	0.303276	1.48469	1.5708	0	0
5.09	1.08645	1.36249	0.478472	0.787641	1.33657	0.957784	0.0699056	0.192597	-0.112183	0.354248	0.2329	0	0	0.42683	-0.23644	-0.0986999	0.0315068	-0.0208143	0	0	-0.0464816	0.238035	0.100665	0.229071	-0.247463	0.258701	1.78705	1.5708	0	0	0.378544	-0.361452	0.29377	1.491	1.5708	0	0
5.1	1.07864	1.35937	0.483514	0.786258	1.34247	0.956797	0.0672158	0.192305	-0.109587	0.357163	0.236942	0	0	0.425423	-0.238897	-0.0874826	0.0176244	-0.0200989	0	0	-0.0439787	0.241523	0.0987123	0.231218	-0.247367	0.259339	1.78662	1.5708	0	0	0.37441	-0.361036	0.288937	1.49592	1.5708	0	0
5.11	1.0764	1.35742	0.48325	0.784803	1.34845	0.955922	0.0627943	0.191305	-0.107784	0.360209	0.241215	0	0	0.422161	-0.240895	-0.0758232	0.00636535	-0.0185564	0	0	-0.0421571	0.243733	0.0994488	0.231308	-0.247749	0.255723	1.78686	1.5708	0	0	0.374253	-0.358845	0.288484	1.49772	1.5708	0	0
5.12	1.07483	1.35634	0.482502	0.783281	1.35451	0.955144	0.0575472	0.189552	-0.105975	0.362926	0.245473	0	0	0.418552	-0.242265	-0.0649633	0	-0.0160506	0	0	-0.0407736	0.24504	0.100389	0.231358	-0.248046	0.250945	1.78749	1.5708	0	0	0.374715	-0.35626	0.288661	1.49927	1.5708	0	0
5.13	1.07325	1.35602	0.481921	0.781646	1.36061	0.954451	0.0516623	0.187049	-0.103367	0.365005	0.249187	0	0	0.415407	-0.242805	-0.0564047	0	-0.0135462	0	0	-0.0396862	0.245661	0.101202	0.231242	-0.248509	0.245584	1.78833	1.5708	0	0	0.375173	-0.353423	0.289248	1.50043	1.5708	0	0
5.14	1.07118	1.35636	0.481757	0.779893	1.36676	0.953835	0.0456851	0.183703	-0.100308	0.367342	0.252367	0	0	0.412394	-0.242488	-0.0497958	0	-0.0130947	0	0	-0.0387188	0.245701	0.10193	0.230668	-0.248869	0.240343	1.78912	1.5708	0	0	0.375365	-0.350487	0.289889	1.50078	1.5708	0	0
5.15	1.06858	1.35731	0.482359	0.778056	1.37299	0.953292	0.0393678	0.179798	-0.0975178	0.369537	0.255105	0	0	0.409785	-0.241353	-0.0462052	0.0055977	-0.0150038	0	0	-0.0376678	0.245033	0.10235	0.229438	-0.249229	0.235456	1.78953	1.5708	0	0	0.375393	-0.34761	0.290835	1.50052	1.5708	0	0
5.16	1.06605	1.35908	0.482798	0.776136	1.37932	0.952852	0.0322405	0.175243	-0.0943156	0.371075	0.257214	0	0	0.406678	-0.239319	-0.0458829	0.0149291	-0.0185521	0	0	-0.0368281	0.243603	0.103037	0.227606	-0.250438	0.231125	1.78981	1.5708	0	0	0.375462	-0.344576	0.292402	1.49973	1.5708	0	0
5.17	1.06392	1.36102	0.482805	0.774122	1.38578	0.952475	0.0248289	0.170385	-0.0911758	0.372383	0.258874	0	0	0.403163	-0.236641	-0.0468097	0.0250177	-0.0221748	0	0	-0.0358594	0.242092	0.103784	0.225381	-0.251944	0.226855	1.79017	1.5708	0	0	0.375387	-0.341289	0.294141	1.49924	1.5708	0	0
5.18	1.0614	1.36327	0.482875	0.771977	1.39234	0.952164	0.0178192	0.164753	-0.0888344	0.37475	0.260328	0	0	0.399031	-0.233134	-0.0490441	0.033908	-0.0260654	0	0	-0.0348574	0.240461	0.104658	0.223313	-0.253478	0.222594	1.79049	1.5708	0	0	0.374925	-0.33766	0.295526	1.49884	1.5708	0	0
5.19	1.05791	1.36596	0.483757	0.769712	1.399	0.951931	0.0109568	0.158389	-0.0868781	0.377613	0.26133	0	0	0.394462	-0.228773	-0.0534084	0.0408051	-0.033378	0	0	-0.0336876	0.238497	0.105541	0.221491	-0.255201	0.218692	1.79063	1.5708	0	0	0.374248	-0.333752	0.296712	1.49799	1.5708	0	0
5.2	1.05497	1.3691	0.48442	0.767335	1.40571	0.951833	0.00393664	0.151614	-0.0848042	0.38064	0.261279	0	0	0.389495	-0.223791	-0.0593774	0.0463179	-0.0463179	0	0	-0.0327317	0.236265	0.106047	0.219728	-0.256994	0.215287	1.79056	1.5708	0	0	0.37362	-0.329762	0.297872	1.49641	1.5708	0	0
5.21	1.05182	1.37267	0.485664	0.764841	1.4124	0.951901	-0.00253451	0.144348	-0.0828054	0.384654	0.260205	0	0	0.384422	-0.218186	-0.0658354	0.0514749	-0.0629417	0	0	-0.0321237	0.233714	0.106166	0.217828	-0.25885	0.211321	1.79024	1.5708	0	0	0.372977	-0.325679	0.299414	1.49442	1.5708	0	0
5.22	1.04742	1.37672	0.488708	0.762204	1.41903	0.952137	-0.00770163	0.136353	-0.081735	0.390801	0.25818	0	0	0.379895	-0.211866	-0.0723679	0.0579869	-0.0775268	0	0	-0.0317937	0.230627	0.105949	0.21565	-0.261071	0.206817	1.78959	1.5708	0	0	0.372441	-0.321289	0.301184	1.49214	1.5708	0	0
5.23	1.04083	1.38136	0.49455	0.759442	1.42559	0.952542	-0.0113918	0.12744	-0.0810711	0.399041	0.255204	0	0	0.375938	-0.204689	-0.0784533	0.0662094	-0.0863161	0	0	-0.0315916	0.226784	0.105395	0.213391	-0.263902	0.202995	1.78876	1.5708	0	0	0.37199	-0.316387	0.303253	1.48953	1.5708	0	0
5.24	1.03086	1.38645	0.504119	0.75658	1.43209	0.953092	-0.0132193	0.117572	-0.0803079	0.40979	0.251264	0	0	0.372773	-0.196782	-0.0841973	0.0761649	-0.0895633	0	0	-0.031281	0.222329	0.105078	0.210852	-0.267401	0.19934	1.78827	1.5708	0	0	0.371713	-0.310532	0.305346	1.48618	1.5708	0	0
5.25	1.01874	1.39194	0.515959	0.753699	1.43852	0.953773	-0.0133071	0.107109	-0.0792345	0.423264	0.246362	0	0	0.370204	-0.188605	-0.0902999	0.0876526	-0.0902839	0	0	-0.031097	0.217345	0.10505	0.208161	-0.271201	0.195442	1.78788	1.5708	0	0	0.371497	-0.303849	0.307193	1.48206	1.5708	0	0
5.26	1.00468	1.39774	0.529355	0.750899	1.4449	0.954561	-0.0114733	0.0963045	-0.0770185	0.439855	0.240476	0	0	0.367965	-0.180482	-0.0976588	0.100189	-0.0911826	0	0	-0.0308281	0.211683	0.106985	0.204014	-0.275647	0.190154	1.78803	1.5708	0	0	0.372449	-0.295859	0.310902	1.47629	1.5708	0	0
5.27	0.98807	1.40325	0.544443	0.748199	1.45124	0.955365	-0.00716853	0.0857755	-0.0727882	0.459847	0.233395	0	0	0.366341	-0.173098	-0.106894	0.11345	-0.0936178	0	0	-0.030208	0.206076	0.110408	0.199257	-0.28088	0.184495	1.78858	1.5708	0	0	0.373154	-0.286862	0.315034	1.4705	1.5708	0	0
5.28	0.968775	1.40788	0.561178	0.745594	1.4575	0.956084	5.52594e-05	0.0761363	-0.0662381	0.483345	0.225006	0	0	0.365255	-0.166915	-0.117452	0.126214	-0.0986747	0	0	-0.0289568	0.201143	0.115145	0.194138	-0.287124	0.178905	1.78911	1.5708	0	0	0.373162	-0.277012	0.318439	1.46514	1.5708	0	0
5.29	0.934506	1.41082	0.590493	0.743125	1.4637	0.956484	0.0133119	0.0666412	-0.0567304	0.512212	0.21605	0	0	0.36587	-0.161329	-0.129203	0.136571	-0.106269	0	0	-0.0247907	0.196575	0.122065	0.188305	-0.294185	0.1733	1.78937	1.5708	0	0	0.371664	-0.266402	0.319902	1.46014	1.5708	0	0
5.3	0.898167	1.41328	0.621759	0.740621	1.46987	0.956689	0.0284367	0.0576346	-0.0452821	0.543343	0.206239	0	0	0.36502	-0.154894	-0.13735	0.142588	-0.113709	0	0	-0.0202585	0.192306	0.127674	0.184191	-0.301188	0.168987	1.78857	1.5708	0	0	0.368256	-0.256118	0.318616	1.45754	1.5708	0	0
5.31	0.845974	1.41492	0.668061	0.738123	1.47597	0.956531	0.0482475	0.0477785	-0.0321185	0.578454	0.196493	0	0	0.365434	-0.146821	-0.145506	0.146711	-0.117286	0	0	-0.013204	0.187033	0.132523	0.181168	-0.3079	0.166222	1.78659	1.5708	0	0	0.36339	-0.246396	0.315804	1.45658	1.5708	0	0
5.32	0.795582	1.41741	0.713065	0.735563	1.48197	0.956269	0.0679505	0.0375973	-0.0181778	0.614929	0.185743	0	0	0.363868	-0.137328	-0.154702	0.149238	-0.117218	0	0	-0.00748542	0.180833	0.135449	0.180229	-0.314188	0.165291	1.78343	1.5708	0	0	0.358502	-0.237677	0.312007	1.45679	1.5708	0	0
5.33	0.739415	1.41951	0.763914	0.73304	1.48781	0.955828	0.0891339	0.0276861	-0.0025776	0.652378	0.173783	0	0	0.36213	-0.126895	-0.163767	0.150428	-0.113936	0	0	-0.00128783	0.173948	0.137336	0.180149	-0.31981	0.165345	1.77973	1.5708	0	0	0.353978	-0.229841	0.307894	1.4571	1.5708	0	0
5.34	0.678589	1.42109	0.81957	0.730626	1.49346	0.955317	0.111302	0.0183295	0.0141348	0.689882	0.160426	0	0	0.360278	-0.115882	-0.171144	0.150432	-0.108866	0	0	0.00522982	0.166356	0.138713	0.180659	-0.324803	0.165907	1.77572	1.5708	0	0	0.350133	-0.223125	0.303996	1.45699	1.5708	0	0
5.35	0.628033	1.42367	0.866215	0.728278	1.49898	0.955028	0.130574	0.010007	0.0296004	0.725731	0.145801	0	0	0.355709	-0.104878	-0.175508	0.149149	-0.103801	0	0	0.00910301	0.158544	0.139445	0.181883	-0.328876	0.165049	1.77181	1.5708	0	0	0.348037	-0.21817	0.303432	1.45722	1.5708	0	0
5.36	0.57276	1.42476	0.917657	0.726074	1.50439	0.954737	0.151326	0.0026877	0.044449	0.761466	0.130263	0	0	0.352846	-0.0947012	-0.17917	0.148406	-0.0986011	0	0	0.0114495	0.149935	0.131478	0.191078	-0.330351	0.174514	1.76464	1.5708	0	0	0.330133	-0.182783	0.103356	1.60266	0.885692	0	0
5.37	0.523114	1.42635	0.964257	0.723965	1.50963	0.954756	0.170323	-0.00376599	0.0579617	0.795746	0.11422	0	0	0.349027	-0.085109	-0.18186	0.147869	-0.0938902	0	0	0.01482	0.142186	0.131742	0.192376	-0.332963	0.173696	1.76042	1.5708	0	0	0.329299	-0.178418	0.102892	1.6025	0.885424	0	0
5.38	0.475245	1.42759	1.00922	0.721932	1.5147	0.954953	0.189051	-0.00932703	0.0705414	0.829067	0.0979816	0	0	0.345797	-0.076521	-0.185083	0.148714	-0.0888772	0	0	0.0175752	0.134773	0.131783	0.194354	-0.335235	0.173404	1.75607	1.5708	0	0	0.32874	-0.174751	0.10242	1.60268	0.884932	0	0
5.39	0.429511	1.42833	1.05219	0.719938	1.51963	0.955263	0.207701	-0.0141066	0.0818584	0.86134	0.0817678	0	0	0.342998	-0.0687126	-0.188327	0.150245	-0.0836991	0	0	0.0200664	0.127898	0.131551	0.197218	-0.337386	0.173084	1.75144	1.5708	0	0	0.328594	-0.171601	0.101738	1.60253	0.884322	0	0
5.4	0.387402	1.4279	1.09169	0.717995	1.52445	0.955572	0.226706	-0.0176241	0.092015	0.89237	0.0667532	0	0	0.340726	-0.0616089	-0.190319	0.151151	-0.0784494	0	0	0.0232754	0.122088	0.131125	0.200367	-0.339389	0.172833	1.74661	1.5708	0	0	0.328661	-0.16883	0.101137	1.60163	0.883527	0	0
5.41	0.356794	1.42757	1.12032	0.716082	1.52921	0.955963	0.243949	-0.01961	0.100203	0.921175	0.0541147	0	0	0.337012	-0.0553167	-0.19104	0.150537	-0.0741924	0	0	0.0254892	0.117736	0.130282	0.203626	-0.341915	0.174242	1.74201	1.5708	0	0	0.329257	-0.166592	0.10346	1.59998	0.912118	0	0
